<?xml version="1.0" encoding="UTF-8" standalone="no"?>
<svg width="15px" height="15px" viewBox="0 0 15 15" version="1.1" xmlns="http://www.w3.org/2000/svg" xmlns:xlink="http://www.w3.org/1999/xlink">
    <!-- Generator: Sketch 3.7.1 (28215) - http://www.bohemiancoding.com/sketch -->
    <title>Group 13</title>
    <desc>Created with Sketch.</desc>
    <defs></defs>
    <g id="Design-Language" stroke="none" stroke-width="1" fill="none" fill-rule="evenodd">
        <g id="User-Interface" transform="translate(-599.000000, -675.000000)">
            <g id="Group" transform="translate(477.000000, 619.000000)">
                <g id="Group-13" transform="translate(122.000000, 56.000000)">
                    <rect id="Rectangle-302" fill="#52BDEC" x="0" y="0" width="15" height="15"></rect>
                    <path d="M11.012818,4.38853281 C10.8755137,4.25144145 10.6503131,4.25144145 10.5129193,4.38853281 L6.07899195,8.81296665 C5.94159811,8.95005801 5.71648704,8.95005801 5.5790932,8.81296665 L4.4870136,7.7233806 C4.34961976,7.58628924 4.12450869,7.58628924 3.98711485,7.7233806 L3.31733109,8.39204705 C3.17993726,8.52913841 3.17993726,8.7537539 3.31733109,8.89084526 L5.5790932,11.1471815 C5.71648704,11.2842728 5.94159811,11.2842728 6.07899195,11.1471815 L11.6826018,5.55564022 C11.8200851,5.41845955 11.8200851,5.19393338 11.6826018,5.05675271 L11.012818,4.38853281 L11.012818,4.38853281 Z" id="Shape-Copy" fill="#FFFFFF"></path>
                </g>
            </g>
        </g>
    </g>
</svg>